# xmcd
#
# Track frame offsets: 
#        150
#        16832
#        31665
#        49345
#        68177
#        85435
#        100492
#        118774
#        129346
#        149823
#        164415
#        179133
#        192785
#        208991
#        227343
#        246079
#        263139
#        281173
#        298778
#
# Disc length: 4192 seconds
#
# Revision: 0
# Processed by: cddbd v1.5.2PL0 Copyright (c) Steve Scherf et al.
# Submitted via: ExactAudioCopy v0.95b3
#
DISCID=28105e13
DTITLE=Frank Michael - Après tant d'années d'amour CD 3
DYEAR=2009
DGENRE=Chanson
TTITLE0=Toutes les femmes sont belles
TTITLE1=Aimez-nous on vous aime
TTITLE2=Solitaire
TTITLE3=Même s'il t'aime
TTITLE4=Ce n'est que la fin de nous
TTITLE5=San Angelo
TTITLE6=Entends ma voix
TTITLE7=Eternamente
TTITLE8=Mamma Leone
TTITLE9=Que reste-t-il de nos amours
TTITLE10=Mes lettres à moi
TTITLE11=J'adore les femmes
TTITLE12=Les Caraïbes à la maison
TTITLE13=Le chanteur des amoureux
TTITLE14=Cet air, c'est le nôtre
TTITLE15=Comme une fleur sous la neige
TTITLE16=La vie en rose
TTITLE17=Le temps qu'il nous reste
TTITLE18=Pour toujours et à jamais
EXTD=
EXTT0=
EXTT1=
EXTT2=
EXTT3=
EXTT4=
EXTT5=
EXTT6=
EXTT7=
EXTT8=
EXTT9=
EXTT10=
EXTT11=
EXTT12=
EXTT13=
EXTT14=
EXTT15=
EXTT16=
EXTT17=
EXTT18=
PLAYORDER=
